<svg id="Layer_1" data-name="Layer 1" xmlns="http://www.w3.org/2000/svg" viewBox="0 0 173.53 166.13"><defs><style>.cls-1{fill:#fff;}</style></defs><title>STAN01-Logo</title><path class="cls-1" d="M55.86,63C67.44,34.87,91.3,30,113.74,41a44,44,0,0,1,5.58,3.27,51.47,51.47,0,0,1,19.12,25.36c6.66-3.53,18.36-6.44,35.09-1.21a76.35,76.35,0,0,0-3.09-14.77,62.55,62.55,0,0,0-15-1.14c1.84-1,10.09-2.09,13.87-2.19a76.48,76.48,0,0,0-14.58-24.43c-2,1.09-6.83,3-9.78,4.55.75-1,6.46-6.28,7.31-7.21A76.17,76.17,0,0,0,131.33,8.13a79.77,79.77,0,0,0-18.81-6.45c-1,3.06-4.6,16.24-6.48,23.52,0-1.88,1.62-20.61,1.87-24.35A78.62,78.62,0,0,0,86.69.6c0,1.31.66,8.59.59,9.91-.48-1.7-3-7.76-3.38-9.5A71.09,71.09,0,0,0,73.17,3.6c.55,1.47,4.08,13.36,5.07,18.14C76.18,18,70.87,8,69.45,4.92A65.79,65.79,0,0,0,49.4,17.07c.88,1.24,6.09,6.82,6.82,8.14a92.82,92.82,0,0,1-9.37-5.75A62,62,0,0,0,41,26.26a65.32,65.32,0,0,0-10.85,23.5C32,51.13,33.43,52,35.64,53.38c-1.34-.09-4-.14-6.35-.11C28.5,56.83,27.8,60.68,27.07,65,23.55,84.67,3.9,95.28,0,96.87,13.79,99.4,42,97.7,55.86,63Z"/><path class="cls-1" d="M79.83,107.2s-23-25.83-24.33-31.85c0,0-21.06,20.06-23.32,26.58C37,105.7,80,123,105.07,166.13c0,0,12.7-33.1,13-45.81,0,0-19.9-23-18.22-29.67l22.64,16.47s8.62-32.94,8.28-35.95c0,0-35.74-54.63-67.48-5.3Z"/></svg>