<?xml version="1.0" encoding="utf-8"?>
<!-- Generator: Adobe Illustrator 24.0.3, SVG Export Plug-In . SVG Version: 6.00 Build 0)  -->
<svg version="1.1" id="Layer_1" xmlns="http://www.w3.org/2000/svg" xmlns:xlink="http://www.w3.org/1999/xlink" x="0px" y="0px"
	 viewBox="0 0 173.53 166.13" style="enable-background:new 0 0 173.53 166.13;" xml:space="preserve">
<style type="text/css">
	.st0{fill:#2F3ABF;}
	.st1{fill:#FFFFFF;}
	.st2{fill:#231F20;}
	.st3{fill:#29272C;}
	.st4{fill-rule:evenodd;clip-rule:evenodd;fill:#FFFFFF;}
	.st5{clip-path:url(#SVGID_2_);fill:#2F3ABF;}
	.st6{clip-path:url(#SVGID_4_);fill:#2F3ABF;}
	.st7{clip-path:url(#SVGID_6_);fill:#2F3ABF;}
	.st8{clip-path:url(#SVGID_8_);fill:#2F3ABF;}
	.st9{clip-path:url(#SVGID_10_);fill:#2F3ABF;}
	.st10{clip-path:url(#SVGID_12_);fill:#2F3ABF;}
	.st11{clip-path:url(#SVGID_14_);fill:#2F3ABF;}
	.st12{clip-path:url(#SVGID_16_);fill:#2F3ABF;}
	.st13{fill:none;stroke:#2F3ABF;stroke-miterlimit:10;}
	.st14{fill:none;stroke:#2F3ABF;stroke-width:0.8094;stroke-miterlimit:10;}
	.st15{fill:#FF392E;}
</style>
<g>
	<path class="st0" d="M55.86,63c11.57-28.13,35.44-32.98,57.87-21.98c1.94,0.95,3.8,2.05,5.59,3.28
		c9.06,6.24,15.88,15.72,19.12,25.36c6.65-3.53,18.36-6.44,35.09-1.21c-0.54-5.03-1.58-9.98-3.09-14.77
		c-6.03-1.18-11.76-1.36-15-1.13c1.85-1.02,10.09-2.09,13.87-2.19c-3.26-8.91-8.17-17.23-14.57-24.44c-2.02,1.1-6.84,2.96-9.78,4.55
		c0.75-1,6.46-6.28,7.31-7.2c-5.9-6.04-12.92-11.19-20.94-15.12c-6.06-2.97-12.39-5.11-18.81-6.45c-0.99,3.06-4.59,16.24-6.48,23.53
		c0-1.88,1.62-20.62,1.87-24.35c-7.1-1.05-14.26-1.13-21.22-0.25c-0.05,1.31,0.66,8.59,0.59,9.91c-0.47-1.7-3.03-7.77-3.38-9.51
		c-3.66,0.59-7.25,1.46-10.74,2.6c0.55,1.47,4.09,13.36,5.08,18.14C76.18,18,70.87,7.98,69.45,4.92
		c-7.34,2.84-14.15,6.9-20.05,12.15c0.88,1.24,6.09,6.82,6.82,8.15c-1.33-0.67-7.4-4.19-9.37-5.75c-2.1,2.1-4.08,4.37-5.89,6.8
		c-5.69,7.93-8.67,14.96-10.84,23.5c1.86,1.37,3.3,2.25,5.52,3.62c-1.34-0.09-3.98-0.14-6.35-0.11c-0.79,3.56-1.49,7.42-2.22,11.71
		C23.55,84.67,3.9,95.28,0,96.87C13.79,99.4,42,97.7,55.86,63z"/>
	<path class="st0" d="M79.83,107.2c0,0-22.99-25.83-24.32-31.85c0,0-21.06,20.06-23.32,26.58c4.76,3.76,47.81,21.06,72.89,64.19
		c0,0,12.71-33.1,13.04-45.8c0,0-19.89-22.99-18.22-29.67l22.64,16.47c0,0,8.62-32.94,8.28-35.94c0,0-35.74-54.64-67.48-5.31
		L79.83,107.2z"/>
</g>
</svg>
