<?xml version="1.0" encoding="utf-8"?>
<!-- Generator: Adobe Illustrator 24.0.3, SVG Export Plug-In . SVG Version: 6.00 Build 0)  -->
<svg version="1.1" id="Layer_1" xmlns="http://www.w3.org/2000/svg" xmlns:xlink="http://www.w3.org/1999/xlink" x="0px" y="0px"
	 viewBox="0 0 303.83 64.83" style="enable-background:new 0 0 303.83 64.83;" xml:space="preserve">
<style type="text/css">
	.st0{fill:#2F3ABF;}
	.st1{fill:#FFFFFF;}
	.st2{fill:#231F20;}
	.st3{fill:#29272C;}
	.st4{fill-rule:evenodd;clip-rule:evenodd;fill:#FFFFFF;}
	.st5{clip-path:url(#SVGID_2_);fill:#2F3ABF;}
	.st6{clip-path:url(#SVGID_4_);fill:#2F3ABF;}
	.st7{clip-path:url(#SVGID_6_);fill:#2F3ABF;}
	.st8{clip-path:url(#SVGID_8_);fill:#2F3ABF;}
	.st9{clip-path:url(#SVGID_10_);fill:#2F3ABF;}
	.st10{clip-path:url(#SVGID_12_);fill:#2F3ABF;}
	.st11{clip-path:url(#SVGID_14_);fill:#2F3ABF;}
	.st12{clip-path:url(#SVGID_16_);fill:#2F3ABF;}
	.st13{fill:none;stroke:#2F3ABF;stroke-miterlimit:10;}
	.st14{fill:none;stroke:#2F3ABF;stroke-width:0.8094;stroke-miterlimit:10;}
	.st15{fill:#FF392E;}
</style>
<g>
	<g>
		<path class="st1" d="M107.48,33.35c-1.18-0.43-2.26-0.94-3.23-1.53c-0.97-0.59-1.8-1.29-2.49-2.09c-0.69-0.8-1.22-1.73-1.6-2.78
			c-0.38-1.05-0.57-2.28-0.57-3.7c0-1.74,0.3-3.28,0.89-4.63c0.59-1.35,1.42-2.49,2.49-3.42c1.07-0.94,2.36-1.64,3.87-2.12
			c1.51-0.48,3.2-0.71,5.08-0.71c1.68,0,3.29,0.17,4.85,0.49c1.56,0.33,3.23,0.81,5,1.43c-0.13,1.05-0.37,2.21-0.71,3.47
			c-0.34,1.27-0.78,2.46-1.31,3.57c-0.85-0.36-1.86-0.74-3.01-1.13c-1.15-0.39-2.58-0.59-4.29-0.59c-0.53,0-1.03,0.05-1.5,0.15
			s-0.9,0.25-1.28,0.47c-0.38,0.21-0.68,0.51-0.91,0.89c-0.23,0.38-0.34,0.85-0.34,1.4c0,0.95,0.31,1.66,0.94,2.12
			c0.62,0.46,1.36,0.85,2.22,1.18l2.37,0.94c1.38,0.56,2.62,1.13,3.72,1.7c1.1,0.58,2.04,1.27,2.83,2.07
			c0.79,0.81,1.4,1.77,1.82,2.91s0.64,2.51,0.64,4.11c0,1.74-0.3,3.31-0.91,4.71c-0.61,1.4-1.5,2.6-2.69,3.6
			c-1.18,1-2.64,1.77-4.36,2.32s-3.7,0.81-5.94,0.81c-2.04,0-3.84-0.16-5.4-0.49c-1.56-0.33-3.24-0.84-5.05-1.53
			c0.13-1.15,0.36-2.37,0.69-3.67c0.33-1.3,0.72-2.62,1.18-3.97c3.02,1.31,5.65,1.97,7.88,1.97c1.68,0,2.98-0.25,3.92-0.76
			c0.94-0.51,1.4-1.39,1.4-2.64c0-0.53-0.1-0.98-0.3-1.35c-0.2-0.38-0.46-0.7-0.79-0.96c-0.33-0.26-0.7-0.48-1.11-0.67
			c-0.41-0.18-0.83-0.35-1.26-0.52L107.48,33.35z"/>
		<path class="st1" d="M131.92,29.85h-7.29c-0.16-0.66-0.27-1.27-0.32-1.85c-0.05-0.57-0.07-1.12-0.07-1.65
			c0-0.52,0.02-1.07,0.07-1.63c0.05-0.56,0.16-1.17,0.32-1.82h22.91c0.16,0.66,0.27,1.27,0.32,1.82c0.05,0.56,0.07,1.1,0.07,1.63
			c0,0.53-0.02,1.08-0.07,1.65c-0.05,0.58-0.16,1.19-0.32,1.85h-7.29v18.48c-0.85,0.13-1.63,0.23-2.32,0.3
			c-0.69,0.07-1.31,0.1-1.87,0.1s-1.18-0.03-1.87-0.1c-0.69-0.07-1.45-0.17-2.27-0.3V29.85z"/>
		<path class="st1" d="M158.08,38.28c0.36,1.35,0.99,2.3,1.9,2.86c0.9,0.56,2.09,0.84,3.57,0.84c0.95,0,2.02-0.11,3.2-0.34
			c1.18-0.23,2.35-0.57,3.5-1.03c0.46,0.85,0.86,1.87,1.21,3.05c0.34,1.18,0.53,2.41,0.57,3.7c-2.92,1.08-5.91,1.63-8.97,1.63
			c-2.37,0-4.39-0.33-6.09-0.99c-1.69-0.66-3.07-1.57-4.14-2.73c-1.07-1.17-1.86-2.55-2.37-4.16c-0.51-1.61-0.76-3.37-0.76-5.27
			c0-1.87,0.26-3.63,0.79-5.27c0.53-1.64,1.31-3.07,2.37-4.29c1.05-1.21,2.37-2.18,3.94-2.88c1.58-0.71,3.42-1.06,5.52-1.06
			c1.74,0,3.29,0.3,4.66,0.89c1.36,0.59,2.52,1.4,3.47,2.44c0.95,1.03,1.68,2.28,2.19,3.74c0.51,1.46,0.76,3.05,0.76,4.75
			c0,0.89-0.04,1.68-0.12,2.39c-0.08,0.71-0.16,1.29-0.22,1.75H158.08z M165.87,32.61c-0.07-1.15-0.42-2.11-1.06-2.88
			c-0.64-0.77-1.57-1.16-2.78-1.16c-1.05,0-1.96,0.33-2.71,0.99c-0.76,0.66-1.2,1.68-1.33,3.05H165.87z"/>
		<path class="st1" d="M177.44,24.14c1.15-0.39,2.54-0.78,4.19-1.16c1.64-0.38,3.7-0.57,6.16-0.57c1.45,0,2.89,0.12,4.34,0.37
			c1.45,0.25,2.75,0.76,3.92,1.55c1.17,0.79,2.12,1.92,2.86,3.4c0.74,1.48,1.11,3.43,1.11,5.86v14.73
			c-0.85,0.16-1.63,0.27-2.32,0.32c-0.69,0.05-1.3,0.07-1.82,0.07c-0.56,0-1.18-0.02-1.87-0.07c-0.69-0.05-1.46-0.16-2.32-0.32
			V34.48c0-1.74-0.33-2.99-0.99-3.75c-0.66-0.75-1.66-1.13-3.01-1.13c-0.36,0-0.75,0.03-1.16,0.1c-0.41,0.07-0.67,0.13-0.76,0.2
			v18.43c-0.86,0.16-1.63,0.27-2.32,0.32s-1.3,0.07-1.82,0.07c-0.56,0-1.18-0.02-1.87-0.07s-1.46-0.16-2.32-0.32V24.14z"/>
		<path class="st1" d="M210.46,29.85h-7.29c-0.16-0.66-0.27-1.27-0.32-1.85c-0.05-0.57-0.07-1.12-0.07-1.65
			c0-0.52,0.02-1.07,0.07-1.63c0.05-0.56,0.16-1.17,0.32-1.82h22.91c0.16,0.66,0.27,1.27,0.32,1.82c0.05,0.56,0.07,1.1,0.07,1.63
			c0,0.53-0.02,1.08-0.07,1.65c-0.05,0.58-0.16,1.19-0.32,1.85h-7.29v18.48c-0.85,0.13-1.63,0.23-2.32,0.3
			c-0.69,0.07-1.31,0.1-1.87,0.1s-1.18-0.03-1.87-0.1c-0.69-0.07-1.45-0.17-2.27-0.3V29.85z"/>
		<path class="st1" d="M240.91,48.97c-2.07,0-3.89-0.31-5.47-0.94c-1.58-0.62-2.9-1.52-3.97-2.69c-1.07-1.17-1.87-2.56-2.41-4.19
			s-0.81-3.42-0.81-5.4c0-2,0.27-3.83,0.81-5.49c0.54-1.66,1.35-3.08,2.41-4.26c1.07-1.18,2.39-2.09,3.97-2.73
			c1.58-0.64,3.4-0.96,5.47-0.96c2.1,0,3.94,0.32,5.52,0.96c1.58,0.64,2.9,1.55,3.97,2.73c1.07,1.18,1.87,2.6,2.41,4.26
			c0.54,1.66,0.81,3.49,0.81,5.49c0,1.97-0.27,3.77-0.81,5.4s-1.35,3.02-2.41,4.19c-1.07,1.17-2.39,2.06-3.97,2.69
			C244.85,48.66,243.01,48.97,240.91,48.97z M240.91,42.22c1.45,0,2.52-0.56,3.23-1.68c0.71-1.12,1.06-2.71,1.06-4.78
			c0-2.1-0.35-3.71-1.06-4.83c-0.71-1.12-1.78-1.68-3.23-1.68s-2.51,0.56-3.2,1.68c-0.69,1.12-1.04,2.73-1.04,4.83
			c0,2.07,0.34,3.66,1.04,4.78C238.39,41.66,239.46,42.22,240.91,42.22z"/>
		<path class="st1" d="M257.91,23c1.54-0.2,3.14-0.36,4.8-0.49c1.66-0.13,3.23-0.2,4.71-0.2c3.97,0,6.96,0.75,8.94,2.24
			c1.99,1.5,2.98,3.59,2.98,6.28c0,1.02-0.12,1.91-0.34,2.66c-0.23,0.76-0.51,1.4-0.84,1.95c-0.33,0.54-0.67,0.98-1.04,1.31
			c-0.36,0.33-0.66,0.59-0.89,0.79l5.62,10.74c-0.66,0.13-1.39,0.23-2.19,0.3c-0.81,0.07-1.59,0.1-2.34,0.1
			c-0.92,0-1.81-0.03-2.66-0.1c-0.85-0.07-1.56-0.17-2.12-0.3l-5.47-11.63l0.69-0.39c1.15-0.66,1.94-1.35,2.36-2.09
			s0.64-1.54,0.64-2.39c0-0.85-0.25-1.55-0.76-2.09c-0.51-0.54-1.32-0.81-2.44-0.81c-0.62,0-1.1,0.03-1.43,0.1v19.36
			c-0.85,0.16-1.63,0.27-2.32,0.32c-0.69,0.05-1.3,0.07-1.82,0.07c-0.56,0-1.17-0.02-1.82-0.07s-1.41-0.16-2.27-0.32V23z"/>
		<path class="st1" d="M289.98,38.13c-1.74-0.49-3.19-1.33-4.34-2.51c-1.15-1.18-1.72-2.79-1.72-4.83c0-1.28,0.26-2.45,0.79-3.5
			s1.26-1.95,2.22-2.69c0.95-0.74,2.08-1.31,3.38-1.7c1.3-0.39,2.73-0.59,4.31-0.59c1.25,0,2.61,0.13,4.09,0.39
			c1.48,0.26,2.94,0.64,4.38,1.13c-0.07,1.05-0.28,2.18-0.64,3.38c-0.36,1.2-0.77,2.26-1.23,3.18c-0.89-0.36-1.96-0.69-3.2-0.99
			c-1.25-0.3-2.4-0.44-3.45-0.44c-1.54,0-2.32,0.43-2.32,1.28c0,0.36,0.18,0.64,0.54,0.84c0.36,0.2,0.77,0.36,1.23,0.49l3.2,0.84
			c0.99,0.26,1.88,0.58,2.69,0.96c0.8,0.38,1.49,0.86,2.07,1.45c0.57,0.59,1.03,1.31,1.35,2.17c0.33,0.85,0.49,1.89,0.49,3.1
			c0,1.25-0.25,2.41-0.76,3.5c-0.51,1.08-1.26,2.02-2.27,2.81c-1,0.79-2.23,1.41-3.7,1.87c-1.46,0.46-3.15,0.69-5.05,0.69
			c-1.58,0-3.04-0.12-4.38-0.34c-1.35-0.23-2.78-0.62-4.29-1.18c0.16-2.23,0.77-4.5,1.82-6.8c1.05,0.49,2.15,0.86,3.3,1.11
			c1.15,0.25,2.3,0.37,3.45,0.37c0.39,0,0.8-0.02,1.23-0.05c0.43-0.03,0.8-0.11,1.13-0.22c0.33-0.11,0.6-0.27,0.81-0.47
			c0.21-0.2,0.32-0.46,0.32-0.79c0-0.43-0.21-0.75-0.64-0.96c-0.43-0.21-0.92-0.4-1.48-0.57L289.98,38.13z"/>
	</g>
	<path class="st1" d="M21.99,24.79c4.56-11.07,13.95-12.98,22.78-8.65c0.76,0.37,1.5,0.81,2.2,1.29c3.57,2.45,6.25,6.19,7.53,9.98
		c2.62-1.39,7.22-2.53,13.81-0.48c-0.21-1.98-0.62-3.93-1.22-5.81c-2.37-0.46-4.63-0.53-5.9-0.45c0.73-0.4,3.97-0.82,5.46-0.86
		c-1.28-3.51-3.22-6.78-5.74-9.62c-0.8,0.43-2.69,1.16-3.85,1.79c0.3-0.39,2.54-2.47,2.88-2.83c-2.32-2.38-5.09-4.4-8.24-5.95
		c-2.39-1.17-4.88-2.01-7.4-2.54c-0.39,1.2-1.81,6.39-2.55,9.26c0-0.74,0.64-8.11,0.74-9.58c-2.8-0.41-5.61-0.44-8.35-0.1
		c-0.02,0.51,0.26,3.38,0.23,3.9c-0.19-0.67-1.19-3.06-1.33-3.74c-1.44,0.23-2.85,0.57-4.23,1.02c0.22,0.58,1.61,5.26,2,7.14
		c-0.81-1.47-2.9-5.42-3.46-6.62c-2.89,1.12-5.57,2.72-7.89,4.78c0.35,0.49,2.4,2.68,2.68,3.21c-0.53-0.26-2.91-1.65-3.69-2.26
		c-0.83,0.83-1.6,1.72-2.32,2.68c-2.24,3.12-3.41,5.89-4.27,9.25c0.73,0.54,1.3,0.88,2.17,1.43c-0.53-0.04-1.57-0.05-2.5-0.04
		c-0.31,1.4-0.59,2.92-0.87,4.61C9.27,33.32,1.54,37.5,0,38.13C5.43,39.12,16.53,38.45,21.99,24.79z"/>
	<path class="st1" d="M49.12,41.18c0,0,3.18-12.54,3.05-13.72c0,0-13.03-20.13-27.11-3.29l0,0c0,0,4.54,12.86,7.04,17.47
		c0,0-9.05-10.17-9.57-12.53c0,0-8.29,7.9-9.18,10.46c1.88,1.48,18.82,8.29,28.69,25.26c0,0,5-13.03,5.13-18.03
		c0,0-7.83-9.05-7.17-11.68L49.12,41.18z"/>
</g>
</svg>
